<svg xmlns="http://www.w3.org/2000/svg" xmlns:xlink="http://www.w3.org/1999/xlink" viewBox="0 0 2048 2048"><defs><style>.cls-1{fill:none;}.cls-2{opacity:0.6;fill:url(#New_Gradient_Swatch_1);}.cls-3{fill:url(#New_Gradient_Swatch_1-2);}.cls-4{fill:url(#Orange_Yellow);}.cls-5{fill:url(#Orange_Yellow-2);}</style><linearGradient id="New_Gradient_Swatch_1" x1="1267.45" y1="1298.84" x2="605.11" y2="636.5" gradientUnits="userSpaceOnUse"><stop offset="0" stop-color="#418fde"/><stop offset="0.13" stop-color="#3a78be"/><stop offset="0.29" stop-color="#335f9d"/><stop offset="0.46" stop-color="#2d4c83"/><stop offset="0.63" stop-color="#293e70"/><stop offset="0.81" stop-color="#273665"/><stop offset="1" stop-color="#263361"/></linearGradient><linearGradient id="New_Gradient_Swatch_1-2" x1="1322.76" y1="1354.22" x2="454.93" y2="486.38" xlink:href="#New_Gradient_Swatch_1"/><linearGradient id="Orange_Yellow" x1="1213.59" y1="1383.93" x2="1883" y2="1383.93" gradientUnits="userSpaceOnUse"><stop offset="0" stop-color="#fff33b"/><stop offset="0.04" stop-color="#fee72e"/><stop offset="0.12" stop-color="#fed51b"/><stop offset="0.2" stop-color="#fdca10"/><stop offset="0.28" stop-color="#fdc70c"/><stop offset="0.67" stop-color="#f3903f"/><stop offset="0.89" stop-color="#ed683c"/><stop offset="1" stop-color="#e93e3a"/></linearGradient><linearGradient id="Orange_Yellow-2" x1="1388.87" y1="990.36" x2="1708.43" y2="990.36" xlink:href="#Orange_Yellow"/></defs><g id="Layer_2" data-name="Layer 2"><g id="Layer_1-2" data-name="Layer 1"><rect id="Background" class="cls-1" width="2048" height="2048"/><g id="Logo"><path id="Slide" class="cls-2" d="M1458.21,753.78V739.42c0-28.14-15.36-44.93-42.78-44.93H566.57c-26.56,0-42.78,16.79-42.78,44.93v566.34c0,28,16.22,44.93,42.78,44.93h603.37c42.07-71.78,117.44-136.81,217.21-171.55-49-46.66-80.39-114.13-80.39-190.21C1306.76,879.82,1371.07,790.67,1458.21,753.78Z"/><path id="Frame" class="cls-3" d="M1462.37,511.59H519.63q-178.74,0-178.74,176.58V1357q0,176.58,178.74,176.58h623.76c-7.32-16.23-11.2-34.6-11.2-54.7a212,212,0,0,1,5.31-46.94H521.06c-50.53,0-79.24-27.28-79.24-80V693.05c0-53.26,28.71-79.82,79.24-79.82h940c50.39,0,79.1,26.56,79.1,79.82v42.21c2.87-.15,5.6-.15,8.47-.15a232.57,232.57,0,0,1,92.45,19.38V688.17C1641.1,570.45,1582.24,511.59,1462.37,511.59Z"/><g id="Person"><path id="Body" class="cls-4" d="M1883,1478.89c0,34.31-26.7,54.7-70.06,54.7h-529.3c-43.49,0-70.05-20.39-70.05-54.7a146.87,146.87,0,0,1,8.18-46.94c8.9-27.14,25.27-55.27,48.52-81.26,41.92-47.66,106.09-88.86,187.92-106.8,10.77-2.45,21.82-4.31,33.31-5.89a441.11,441.11,0,0,1,48.66-3.59c2.87-.14,5.6-.14,8.47-.14a428.16,428.16,0,0,1,56.85,3.73,346.5,346.5,0,0,1,35.6,6.46C1792.27,1278.63,1883,1392.9,1883,1478.89Z"/><path id="Head" class="cls-5" d="M1708.43,987.49c0,60.29-27.27,111.54-67.33,143a160.45,160.45,0,0,1-43.21,24.27,143,143,0,0,1-49.24,8.75c-2.87,0-5.74-.14-8.47-.28a146.75,146.75,0,0,1-40.91-8.47,154.81,154.81,0,0,1-41.06-22.4c-41.2-31-69.34-82.83-69.34-143.41s28.14-111.26,69.34-141.41a153.62,153.62,0,0,1,82-30.15c2.73,0,5.6-.14,8.47-.14,33.59,0,65.9,11.48,92.45,31.44C1681.16,878.67,1708.43,928.2,1708.43,987.49Z"/></g></g></g></g></svg>