<svg width="1000" height="1000" viewBox="0 0 1000 1000" fill="none" version="1.2" baseProfile="tiny" xmlns="http://www.w3.org/2000/svg">
<rect width="1000" height="1000" fill="#141622"/>
<path opacity="0.6" d="M712.017 368.057V361.045C712.017 347.305 704.517 339.106 691.128 339.106H276.646C263.677 339.106 255.757 347.305 255.757 361.045V637.578C255.757 651.25 263.677 659.517 276.646 659.517H571.26C591.802 624.468 628.604 592.715 677.319 575.752C653.394 552.969 638.066 520.024 638.066 482.876C638.066 429.6 669.468 386.069 712.017 368.057Z" fill="url(#paint0_linear_21_13)"/>
<path d="M714.048 249.8H253.726C195.542 249.8 166.45 278.54 166.45 336.021V662.598C166.45 720.078 195.542 748.818 253.726 748.818H558.296C554.722 740.894 552.827 731.924 552.827 722.109C552.835 714.397 553.704 706.709 555.42 699.189H254.424C229.751 699.189 215.732 685.869 215.732 660.127V338.403C215.732 312.397 229.751 299.429 254.424 299.429H713.408C738.013 299.429 752.031 312.397 752.031 338.403V359.014C753.433 358.94 754.766 358.94 756.167 358.94C771.703 358.974 787.067 362.194 801.309 368.403V336.021C801.318 278.54 772.578 249.8 714.048 249.8Z" fill="url(#paint1_linear_21_13)"/>
<path d="M919.434 722.114C919.434 738.867 906.396 748.823 885.225 748.823H626.777C605.542 748.823 592.573 738.867 592.573 722.114C592.648 714.308 593.997 706.566 596.567 699.194C600.913 685.942 608.906 672.207 620.259 659.517C640.728 636.245 672.061 616.128 712.017 607.368C717.275 606.172 722.671 605.264 728.281 604.492C736.163 603.47 744.095 602.885 752.041 602.739C753.442 602.671 754.775 602.671 756.177 602.671C765.46 602.661 774.733 603.269 783.936 604.492C789.781 605.24 795.583 606.293 801.318 607.646C875.132 624.331 919.434 680.127 919.434 722.114Z" fill="url(#paint2_linear_21_13)"/>
<path d="M834.194 482.173C834.194 511.611 820.879 536.636 801.318 551.997C794.942 557.016 787.824 561.014 780.22 563.848C772.519 566.673 764.38 568.119 756.177 568.12C754.775 568.12 753.374 568.052 752.041 567.983C745.219 567.565 738.493 566.172 732.065 563.848C724.867 561.238 718.107 557.55 712.017 552.91C691.899 537.773 678.159 512.466 678.159 482.886C678.159 453.306 691.899 428.56 712.017 413.838C723.657 405.159 737.566 400.045 752.056 399.116C753.389 399.116 754.79 399.048 756.191 399.048C772.593 399.048 788.369 404.653 801.333 414.399C820.879 429.038 834.194 453.223 834.194 482.173Z" fill="url(#paint3_linear_21_13)"/>
<defs>
<linearGradient id="paint0_linear_21_13" x1="618.872" y1="634.199" x2="295.464" y2="310.791" gradientUnits="userSpaceOnUse">
<stop stop-color="#418FDE"/>
<stop offset="0.13" stop-color="#3A78BE"/>
<stop offset="0.29" stop-color="#335F9D"/>
<stop offset="0.46" stop-color="#2D4C83"/>
<stop offset="0.63" stop-color="#293E70"/>
<stop offset="0.81" stop-color="#273665"/>
<stop offset="1" stop-color="#263361"/>
</linearGradient>
<linearGradient id="paint1_linear_21_13" x1="645.879" y1="661.24" x2="222.134" y2="237.49" gradientUnits="userSpaceOnUse">
<stop stop-color="#418FDE"/>
<stop offset="0.13" stop-color="#3A78BE"/>
<stop offset="0.29" stop-color="#335F9D"/>
<stop offset="0.46" stop-color="#2D4C83"/>
<stop offset="0.63" stop-color="#293E70"/>
<stop offset="0.81" stop-color="#273665"/>
<stop offset="1" stop-color="#263361"/>
</linearGradient>
<linearGradient id="paint2_linear_21_13" x1="592.573" y1="675.747" x2="919.434" y2="675.747" gradientUnits="userSpaceOnUse">
<stop stop-color="#FFF33B"/>
<stop offset="0.04" stop-color="#FEE72E"/>
<stop offset="0.12" stop-color="#FED51B"/>
<stop offset="0.2" stop-color="#FDCA10"/>
<stop offset="0.28" stop-color="#FDC70C"/>
<stop offset="0.67" stop-color="#F3903F"/>
<stop offset="0.89" stop-color="#ED683C"/>
<stop offset="1" stop-color="#E93E3A"/>
</linearGradient>
<linearGradient id="paint3_linear_21_13" x1="678.159" y1="483.574" x2="834.194" y2="483.574" gradientUnits="userSpaceOnUse">
<stop stop-color="#FFF33B"/>
<stop offset="0.04" stop-color="#FEE72E"/>
<stop offset="0.12" stop-color="#FED51B"/>
<stop offset="0.2" stop-color="#FDCA10"/>
<stop offset="0.28" stop-color="#FDC70C"/>
<stop offset="0.67" stop-color="#F3903F"/>
<stop offset="0.89" stop-color="#ED683C"/>
<stop offset="1" stop-color="#E93E3A"/>
</linearGradient>
</defs>
</svg>
